# xmcd
#
# Track frame offsets: 
#        150
#        14942
#        25373
#        40532
#        47654
#        48351
#        60367
#        74805
#        86333
#        95621
#        106954
#        110344
#        122692
#        130029
#        144960
#        190570
#        207699
#        218426
#        230410
#        242578
#        252929
#        258054
#        272128
#        287688
#        297336
#        310550
#        318803
#        326574
#        344105
#
# Disc length: 4754 seconds
#
# Revision: 0
# Processed by: cddbd v1.5.2PL0 Copyright (c) Steve Scherf et al.
# Submitted via: ExactAudioCopy v0.99pb4
#
DISCID=a612901d
DTITLE=Young Fresh Fellows - Since Chuck Left the Band
DYEAR=1998
DGENRE=Ambient
TTITLE0=New Young Fresh Fellows Theme
TTITLE1=High Time
TTITLE2=Horses, Horses, Horses, Horses
TTITLE3=Dancin' in the Moonlight
TTITLE4=Do You Care Theme
TTITLE5=Yankee Magazine (slow)
TTITLE6=Purple Sweater
TTITLE7=Two Guitars, Bass, and Drums
TTITLE8=Sesame Street Theme
TTITLE9=I Hate Everything
TTITLE10=Fetid
TTITLE11=I'm Not Bitter
TTITLE12=Yankee Magazine (fast)
TTITLE13=Our Last Show
TTITLE14=I Just Sit There
TTITLE15=Dark Corner of the World
TTITLE16=Stewed
TTITLE17=Something True
TTITLE18=Got My Feet on the Ground
TTITLE19=Ballad of the Big Three
TTITLE20=Rhythm Stand
TTITLE21=Supersnazz Part Two
TTITLE22=Find a Finger
TTITLE23=Drunkard's Lullaby
TTITLE24=Have I the Right
TTITLE25=Can't Get Beside Her
TTITLE26=Something Like That
TTITLE27=Viva Seattle
TTITLE28=Whenever You're Ready
EXTD=
EXTT0=
EXTT1=
EXTT2=
EXTT3=
EXTT4=
EXTT5=
EXTT6=
EXTT7=
EXTT8=
EXTT9=
EXTT10=
EXTT11=
EXTT12=
EXTT13=
EXTT14=
EXTT15=
EXTT16=
EXTT17=
EXTT18=
EXTT19=
EXTT20=
EXTT21=
EXTT22=
EXTT23=
EXTT24=
EXTT25=
EXTT26=
EXTT27=
EXTT28=
PLAYORDER=
